inDegrees=yes
name=ik_S53_A12_T02
DataType=double
version=3
OpenSimVersion=4.3-2021-08-27-4bc7ad9
endheader
time	pelvis_tilt	pelvis_list	pelvis_rotation	pelvis_tx	pelvis_ty	pelvis_tz	hip_flexion_r	hip_adduction_r	hip_rotation_r	knee_angle_r	knee_angle_r_beta	ankle_angle_r	subtalar_angle_r	mtp_angle_r	hip_flexion_l	hip_adduction_l	hip_rotation_l	knee_angle_l	knee_angle_l_beta	ankle_angle_l	subtalar_angle_l	mtp_angle_l	lumbar_extension	lumbar_bending	lumbar_rotation	arm_flex_r	arm_add_r	arm_rot_r	elbow_flex_r	pro_sup_r	wrist_flex_r	wrist_dev_r	arm_flex_l	arm_add_l	arm_rot_l	elbow_flex_l	pro_sup_l	wrist_flex_l	wrist_dev_l
13.93333333333361	-1.971817801971869	-1.317768962154489	39.84078523013449	0	0.9399999999999999	0	36.85189812575168	-9.871518711878766	-9.541720019066949	42.63340417233362	0.7440932741407096	0	0	0	36.85189812575168	-9.871518711878766	-9.541720019066949	42.63340417233362	0.7440932741407096	0	0	0	-1.668372431430244	-0.0307063000872271	3.066467150296649	19.31047871970645	-8.518288388373117	0.3779497739896122	3.663883125640392	134.0900301430474	0	0	40.06791103773104	-36.18011961168696	10.49508856226621	49.09218839677189	61.10785476110192	0	0
13.95000000000027	-1.974355637898523	-1.318639161551582	39.96419000690187	0	0.9399999999999999	0	36.85660571808788	-9.871774839653366	-9.542306213449384	42.63830856073083	0.7441788718660375	0	0	0	36.85660571808788	-9.871774839653366	-9.542306213449384	42.63830856073083	0.7441788718660375	0	0	0	-1.672819067245697	-0.0267425294945554	2.950137101427872	19.30343651058959	-8.532047415849615	0.5277734402383998	3.652727540147745	134.0184155800675	0	0	38.27687440649623	-35.25139698022817	8.934560979557206	48.7967525667908	62.40791098432669	0	0
13.96666666666694	-1.946449627067573	-1.344791215606492	40.08748300791975	0	0.9399999999999999	0	36.86120014133982	-9.872024568399276	-9.542878080060161	42.64309414969655	0.7442623961501366	0	0	0	36.86120014133982	-9.872024568399276	-9.542878080060161	42.64309414969655	0.7442623961501366	0	0	0	-1.668329283750823	-0.06421139269310173	2.846777037243851	19.28041458097391	-8.462694597663774	0.53963698491977	3.636759394137248	134.0393710906375	0	0	36.36200835628903	-34.07617273462974	7.57993736950523	47.6861481439839	63.6090576457157	0	0
13.98333333333361	-1.91707359166181	-1.357543953334071	40.20784204743529	0	0.9399999999999999	0	36.86556044501606	-9.872261120648069	-9.543420249319665	42.6476389269072	0.7443417174762319	0	0	0	36.86556044501606	-9.872261120648069	-9.543420249319665	42.6476389269072	0.7443417174762319	0	0	0	-1.653944547345863	-0.09326418983230063	2.762124530385063	19.20095978008508	-8.402802448016512	0.5133575334675583	3.645250222279836	134.0537550273264	0	0	34.60210441021982	-32.75479570657391	6.276121066877066	46.41833521372329	64.95600475842593	0	0
14.00000000000028	-1.94128881440127	-1.404591165914536	40.33504942103445	0	0.9399999999999999	0	36.87147752259334	-9.872582084714143	-9.544156116104018	42.65379928122579	0.7444492359421807	0	0	0	36.87147752259334	-9.872582084714143	-9.544156116104018	42.65379928122579	0.7444492359421807	0	0	0	-1.703565916118579	-0.1121123815328973	2.659543645946334	19.25450892921988	-8.376458612489088	0.572159695639361	3.651167564901147	133.9770323401343	0	0	33.18784484837091	-31.36202066075112	4.875665047310093	44.86558365832705	66.86705434736635	0	0
14.01666666666694	-1.955557652996044	-1.470561496733598	40.44223994036514	0	0.9399999999999999	0	36.87551487339175	-9.872800225426777	-9.544657043202051	42.65801285558452	0.7445227766880181	0	0	0	36.87551487339175	-9.872800225426777	-9.544657043202051	42.65801285558452	0.7445227766880181	0	0	0	-1.758045586650496	-0.1542673313335636	2.57347014766195	19.35068064649726	-8.296007765514601	0.5100216422301578	3.618656116187763	134.0295503808507	0	0	31.95214064263614	-30.11945353648723	3.640003273416856	43.24481925668607	68.88127012195065	0	0
14.03333333333361	-1.955280686829046	-1.464206469600011	40.46835451081025	0	0.9399999999999999	0	36.87972968216275	-9.873027674495917	-9.545179669669569	42.66241240100123	0.7445995632411309	0	0	0	36.87972968216275	-9.873027674495917	-9.545179669669569	42.66241240100123	0.7445995632411309	0	0	0	-1.753912665845312	-0.1492829191440231	2.53736271153426	19.29548017826288	-8.338202428200901	0.4842732294239691	3.677089706786924	134.0635238443289	0	0	30.66532729527711	-29.15681029936482	2.623964779438523	42.75911205245142	70.15528797066038	0	0
14.05000000000028	-1.921293815756725	-1.479349299481187	40.44924199354337	0	0.9399999999999999	0	36.88361689622007	-9.873236851559581	-9.545660877884137	42.66647656951791	0.7446704963631028	0	0	0	36.88361689622007	-9.873236851559581	-9.545660877884137	42.66647656951791	0.7446704963631028	0	0	0	-1.736144506927862	-0.1857794821234839	2.590325997664562	19.14551984224932	-8.287966048998518	0.2535264022791014	3.753559081311391	134.278040947042	0	0	29.36874297273654	-28.53540675899472	1.929470465342728	43.5288684091384	70.86292356955367	0	0
14.06666666666695	-1.904220728994137	-1.508628944967563	40.50802789293343	0	0.9399999999999999	0	36.8871414201428	-9.873426600643825	-9.546097396748022	42.67015688493729	0.7447347299846829	0	0	0	36.8871414201428	-9.873426600643825	-9.546097396748022	42.67015688493729	0.7447347299846829	0	0	0	-1.741526533480207	-0.2212905612275695	2.577627795296902	19.13326256081888	-8.231269859684696	0.189881431747305	3.76043297237341	134.2569966924059	0	0	27.97235734989262	-27.34910924047441	1.175970822931867	42.23945985489363	72.14275135836552	0	0
14.08333333333361	-1.895999936041016	-1.50318204737664	40.58102822924254	0	0.9399999999999999	0	36.89013557708126	-9.873587473872709	-9.546467808582053	42.67328640852836	0.7447893504753659	0	0	0	36.89013557708126	-9.873587473872709	-9.546467808582053	42.67328640852836	0.7447893504753659	0	0	0	-1.734335643427391	-0.2176611588552779	2.495467160938511	19.06917619169046	-8.228277679785911	0.4094242647934307	3.619325764486962	134.1749449285845	0	0	27.78225282152728	-26.80583976070532	1.066443706572119	40.23319697448041	72.54474364336163	0	0
14.10000000000028	-1.893668236213701	-1.494013726699954	40.69818677656141	0	0.9399999999999999	0	36.89405819317888	-9.873798298169172	-9.546953256713063	42.67738209029182	0.7448608336072522	0	0	0	36.89405819317888	-9.873798298169172	-9.546953256713063	42.67738209029182	0.7448608336072522	0	0	0	-1.727057816288251	-0.2128166714026847	2.454465311578881	19.05301649358152	-8.267220464796925	0.3221430254286931	3.603429566197996	134.2086375312075	0	0	26.4639188612524	-25.45392093752106	0.03632118411563815	38.79937960331102	73.98558744061776	0	0
14.11666666666695	-1.872406572263583	-1.492029403409233	40.84452168430108	0	0.9399999999999999	0	36.89765922231636	-9.873991574588853	-9.547398594004489	42.68114317778951	0.7449264769675424	0	0	0	36.89765922231636	-9.873991574588853	-9.547398594004489	42.68114317778951	0.7449264769675424	0	0	0	-1.709803855554425	-0.2247630702970246	2.367963472777794	19.0091591448315	-8.256279629704146	0.4214653260741295	3.503017312561779	134.1428374577202	0	0	25.18988061874147	-24.20562071939127	-1.114270635372134	37.36516535122599	75.60873573687668	0	0
14.13333333333362	-1.870928260589751	-1.477793539593623	40.84687595159898	0	0.9399999999999999	0	36.90113020583284	-9.874177512440951	-9.54782737976673	42.68477186220888	0.7449898094581762	0	0	0	36.90113020583284	-9.874177512440951	-9.54782737976673	42.68477186220888	0.7449898094581762	0	0	0	-1.700320499075113	-0.2134460387594747	2.335948335488818	18.95854418874729	-8.281675250864208	0.4005188636990705	3.47325658296904	134.2783698921443	0	0	25.09382133281893	-23.93694272576495	-1.240538587485338	36.3559527899744	75.938651510635	0	0
14.15000000000028	-1.877681327767132	-1.498593858352898	40.93621126820861	0	0.9399999999999999	0	36.90527435258088	-9.874399630952581	-9.548339599284201	42.68909829114578	0.7450653198879786	0	0	0	36.90527435258088	-9.874399630952581	-9.548339599284201	42.68909829114578	0.7450653198879786	0	0	0	-1.720322563038463	-0.2245031164899629	2.306269150981044	18.92549250381946	-8.288332560855936	0.182563742044589	3.50704505269626	134.4658701725087	0	0	23.93059638065044	-22.75053850626609	-2.236057780087001	34.98023070372344	77.43660469412815	0	0
14.16666666666695	-1.877222965852049	-1.495707909244997	40.98021034412501	0	0.9399999999999999	0	36.90951436354228	-9.874626666433802	-9.548863443524134	42.69352423819797	0.7451425672365585	0	0	0	36.90951436354228	-9.874626666433802	-9.548863443524134	42.69352423819797	0.7451425672365585	0	0	0	-1.718615404019706	-0.2224643426734632	2.264204766740867	18.86287247520049	-8.271177037636532	0.1833429762953577	3.533851731865504	134.505189058329	0	0	22.77879133065755	-21.50482737578623	-3.124463028646458	33.52953914728639	78.78381815541407	0	0
14.18333333333362	-1.890319365157516	-1.553081300804025	41.07827121647296	0	0.9399999999999999	0	36.91327980183081	-9.874828002485147	-9.54932831253099	42.69745615071818	0.7452111920559364	0	0	0	36.91327980183081	-9.874828002485147	-9.54932831253099	42.69745615071818	0.7452111920559364	0	0	0	-1.766305405843214	-0.2579201333776805	2.265132045380801	18.89643792281021	-8.22422186255306	0.1715149679585374	3.556906593818077	134.4696930659085	0	0	21.8698599298381	-20.31145136067542	-3.756719597116112	32.1176177662902	79.98036796676915	0	0
14.20000000000029	-1.913280697367572	-1.519359466212555	41.15087223227619	0	0.9399999999999999	0	36.9169683702121	-9.875024896422083	-9.549783270496617	42.70131040259432	0.7452784614413763	0	0	0	36.9169683702121	-9.875024896422083	-9.549783270496617	42.70131040259432	0.7452784614413763	0	0	0	-1.762413824534985	-0.2163116525216288	2.215477594749039	18.86386668199945	-8.288066762768114	0.2652730938545251	3.558046603800928	134.4569530176874	0	0	20.86660110843863	-18.99735641456091	-4.591670816694178	30.58969015258933	81.14482990082467	0	0
14.21666666666695	-1.923099683579146	-1.498627433576639	41.24036063085653	0	0.9399999999999999	0	36.92041603810215	-9.875208693549446	-9.550208229832586	42.70491413248477	0.7453413583933172	0	0	0	36.92041603810215	-9.875208693549446	-9.550208229832586	42.70491413248477	0.7453413583933172	0	0	0	-1.756495375411163	-0.1937887334892882	2.17098273081705	18.82755323763852	-8.333275105146324	0.2527322234158043	3.566762943725368	134.4736873656391	0	0	19.97544358245944	-17.81849825431497	-5.329138943010913	29.08085855466264	81.96579489771871	0	0
14.23333333333362	-1.940458639336043	-1.471613388068248	41.31183338714368	0	0.9399999999999999	0	36.9242140269204	-9.875410978974076	-9.550676168049744	42.70888401847342	0.7454106459747478	0	0	0	36.9242140269204	-9.875410978974076	-9.550676168049744	42.70888401847342	0.7454106459747478	0	0	0	-1.75171715389736	-0.1618760677699448	2.160556842433709	18.79360993476237	-8.400699222646988	0.1816058941793362	3.532476267614625	134.5204467738146	0	0	19.22956939452463	-16.76947002807104	-6.001367671052432	28.50223974356464	82.73827039278233	0	0
14.25000000000029	-1.946446744360426	-1.457822588521302	41.3649701183338	0	0.9399999999999999	0	36.92817216582065	-9.875621001815441	-9.551162729298598	42.71303174626324	0.7454830374811567	0	0	0	36.92817216582065	-9.875621001815441	-9.551162729298598	42.71303174626324	0.7454830374811567	0	0	0	-1.747128859532797	-0.1464016061076139	2.133520524549256	18.78681390686652	-8.430757900778646	0.1596991920924382	3.535626508393169	134.5253098811544	0	0	18.63068677675013	-15.90877613268756	-6.802779623707902	28.80700936894018	83.70712900175604	0	0
14.26666666666696	-1.911105162011163	-1.418590285621095	41.50596245520445	0	0.9399999999999999	0	36.93095230755162	-9.875768374953985	-9.551504320427394	42.71594533795754	0.7455338892492809	0	0	0	36.93095230755162	-9.875768374953985	-9.551504320427394	42.71594533795754	0.7455338892492809	0	0	0	-1.696112571553652	-0.1375094535246153	2.079848913248297	18.63813785753135	-8.452838712362343	0.08591052612839579	3.529218843879788	134.4826756291107	0	0	18.50962035887246	-15.58890413883637	-6.900158058248008	26.74973243270091	83.63206418778644	0	0
14.28333333333362	-1.892319269059431	-1.388183186653007	41.7083230867635	0	0.9399999999999999	0	36.9350602403984	-9.875986656786731	-9.552009941839968	42.72023718368528	0.7456087960882178	0	0	0	36.9350602403984	-9.875986656786731	-9.552009941839968	42.72023718368528	0.7456087960882178	0	0	0	-1.662810943346821	-0.1240757823131419	2.01443195632894	18.55134570086625	-8.516633129863287	-0.05287725515425289	3.534754818430995	134.5128302988671	0	0	17.95984737806345	-14.40272105264359	-7.9186305838261	24.8306181304876	84.75970553032857	0	0
